<svg width="265" height="26" viewBox="0 0 265 26" fill="none" xmlns="http://www.w3.org/2000/svg">
<path d="M3.96587 6.15761V1.5068H14.0052V6.15761H3.96587ZM3.96587 14.946V10.5839H13.6845V14.946H3.96587ZM0.373516 1.5068H5.56959V23.959H0.373516V1.5068ZM19.3752 19.6289L19.7601 15.4913H30.8899L31.2428 19.6289H19.3752ZM25.2448 9.74996L22.1015 16.9988L22.3581 18.1856L19.5676 23.959H13.4414L25.2448 0.0955238L37.0803 23.959H30.922L28.2278 18.4101L28.4202 17.0309L25.2448 9.74996ZM39.433 1.5068H44.8536V19.3082H53.8666V23.959H39.433V1.5068ZM60.8779 19.6289L61.2628 15.4913H72.3926L72.7455 19.6289H60.8779ZM66.7475 9.74996L63.6042 16.9988L63.8608 18.1856L61.0703 23.959H54.9441L66.7475 0.0955238L78.583 23.959H72.4247L69.7305 18.4101L69.9229 17.0309L66.7475 9.74996ZM84.5281 6.15761V1.5068H94.5674V6.15761H84.5281ZM84.5281 14.946V10.5839H94.2467V14.946H84.5281ZM80.9357 1.5068H86.1318V23.959H80.9357V1.5068ZM102.257 23.959V19.5006H113.579V23.959H102.257ZM102.257 5.96516V1.5068H113.579V5.96516H102.257ZM102.257 14.3366V9.97448H112.938V14.3366H102.257ZM98.6644 1.5068H103.861V23.959H98.6644V1.5068ZM117.991 1.5068H123.411V19.3082H132.424V23.959H117.991V1.5068ZM152.763 18.8912L160.141 1.5068H163.188L152.763 25.0816L142.339 1.5068H145.386L152.763 18.8912ZM167.427 23.959V21.393H178.749V23.959H167.427ZM167.427 4.07277V1.5068H178.749V4.07277H167.427ZM167.427 13.0536V10.4877H178.107V13.0536H167.427ZM165.919 1.5068H168.645V23.959H165.919V1.5068ZM187.563 12.8933H190.61L198.629 23.959H195.261L187.563 12.8933ZM183.554 1.5068H186.28V23.959H183.554V1.5068ZM185.061 3.9124V1.5068H189.648C191.102 1.5068 192.396 1.78478 193.529 2.34074C194.684 2.87532 195.592 3.64511 196.255 4.65011C196.94 5.65511 197.282 6.85256 197.282 8.24246C197.282 9.61097 196.94 10.8084 196.255 11.8348C195.592 12.8398 194.684 13.6203 193.529 14.1762C192.396 14.7108 191.102 14.9781 189.648 14.9781H185.061V12.5725H189.648C190.61 12.5725 191.455 12.4015 192.182 12.0593C192.93 11.7172 193.508 11.2254 193.914 10.5839C194.341 9.94241 194.555 9.16193 194.555 8.24246C194.555 7.32299 194.341 6.54251 193.914 5.90102C193.508 5.25952 192.93 4.76771 192.182 4.42559C191.455 4.08346 190.61 3.9124 189.648 3.9124H185.061ZM201.502 1.5068H204.228V23.959H201.502V1.5068ZM210.871 4.07277V1.5068H220.911V4.07277H210.871ZM210.871 13.0536V10.4877H220.59V13.0536H210.871ZM209.364 1.5068H212.09V23.959H209.364V1.5068ZM225.401 1.5068H228.127V23.959H225.401V1.5068ZM234.771 23.959V21.393H246.093V23.959H234.771ZM234.771 4.07277V1.5068H246.093V4.07277H234.771ZM234.771 13.0536V10.4877H245.451V13.0536H234.771ZM233.263 1.5068H235.989V23.959H233.263V1.5068ZM251.732 17.1592C252.245 18.0573 252.779 18.8484 253.335 19.5327C253.913 20.217 254.554 20.7515 255.26 21.1364C255.966 21.5213 256.767 21.7138 257.665 21.7138C258.863 21.7138 259.825 21.3823 260.552 20.7195C261.279 20.0566 261.643 19.212 261.643 18.1856C261.643 17.1806 261.408 16.3787 260.937 15.78C260.467 15.1813 259.847 14.7001 259.077 14.3366C258.328 13.9517 257.526 13.6096 256.671 13.3102C256.115 13.1178 255.495 12.8719 254.811 12.5725C254.127 12.2518 253.474 11.8562 252.854 11.3858C252.234 10.894 251.721 10.2952 251.315 9.58959C250.93 8.88395 250.737 8.01794 250.737 6.99155C250.737 5.87963 251.015 4.88532 251.571 4.00862C252.127 3.13191 252.897 2.44766 253.881 1.95585C254.864 1.44265 255.987 1.18606 257.249 1.18606C258.467 1.18606 259.526 1.42127 260.424 1.8917C261.343 2.34074 262.124 2.92877 262.765 3.6558C263.407 4.36144 263.909 5.10984 264.273 5.90102L261.931 7.24815C261.653 6.69219 261.301 6.14692 260.873 5.61234C260.445 5.07777 259.921 4.63942 259.301 4.29729C258.703 3.95516 257.965 3.7841 257.088 3.7841C255.869 3.7841 254.982 4.08346 254.426 4.68218C253.87 5.25953 253.592 5.91171 253.592 6.63873C253.592 7.25884 253.752 7.83618 254.073 8.37076C254.394 8.88395 254.928 9.37576 255.677 9.84618C256.447 10.2952 257.484 10.7443 258.788 11.1933C259.387 11.4071 260.018 11.6851 260.68 12.0273C261.343 12.3694 261.953 12.8077 262.509 13.3423C263.086 13.8555 263.557 14.4863 263.92 15.2347C264.284 15.9617 264.465 16.8384 264.465 17.8648C264.465 18.8484 264.273 19.7358 263.888 20.527C263.524 21.3182 263.011 21.9917 262.348 22.5477C261.707 23.1037 260.969 23.5313 260.135 23.8307C259.323 24.13 258.467 24.2797 257.569 24.2797C256.35 24.2797 255.217 24.0231 254.169 23.5099C253.143 22.9754 252.234 22.2804 251.443 21.4251C250.673 20.5484 250.042 19.6182 249.551 18.6346L251.732 17.1592Z" fill="black"/>
</svg>
